<?xml version="1.0" ?><svg data-name="Layer 1" id="Layer_1" viewBox="0 0 512 512" xmlns="http://www.w3.org/2000/svg"><title/><path d="M433.13,123.39H78.87A18,18,0,0,0,61.16,141.1V245.65a18,18,0,0,0,17.71,17.72h.63L61.8,366.19c-1.92,11.16,4.67,22.42,17.08,22.42H158c7.2,0,15.71-5.45,17.08-13q10.2-56.13,20.41-112.24H433.13a18,18,0,0,0,17.71-17.72V141.1A18,18,0,0,0,433.13,123.39Zm-289.9,229.8H99.82q7.73-44.91,15.47-89.82h44.28Q151.4,308.28,143.23,353.19Zm37.59-125.25H96.58V158.81H415.42v69.13Z"/></svg>